# xmcd
#
# Track frame offsets:
#	150
#	31305
#	49242
#	69053
#	93607
#	117823
#	135008
#	145638
#	159297
#	172367
#
# Disc length: 2527 seconds
#
# Revision: 1
# Processed by: cddbd v1.5.2PL0 Copyright (c) Steve Scherf et al.
# Submitted via: audiograbber 1.83.01
#
DISCID=7b09dd0a
DTITLE=Carmel - Strictly Piaf
DYEAR=2012
DGENRE=Chanson
TTITLE0=Running
TTITLE1=Sous Le Ciel De Paris
TTITLE2=Les Amants D'un Jour
TTITLE3=Autumn Leaves
TTITLE4=La Vi En Rose
TTITLE5=Mon Legionnaire
TTITLE6=All My Love (Bolero)
TTITLE7=The Poor People Of Paris
TTITLE8=Non, Je Ne Regrette Rien
TTITLE9=Running (Radio Edit)
EXTD=
EXTT0=
EXTT1=
EXTT2=
EXTT3=
EXTT4=
EXTT5=
EXTT6=
EXTT7=
EXTT8=
EXTT9=
PLAYORDER=
